<?xml version="1.0" encoding="UTF-8"?>
<svg id="Capa_1" xmlns="http://www.w3.org/2000/svg" version="1.1" viewBox="0 0 48 46">
  <!-- Generator: Adobe Illustrator 30.2.1, SVG Export Plug-In . SVG Version: 2.1.1 Build 1)  -->
  <g id="Capa_1-2">
    <path d="M36.7,37.8h-.4c-1.1,0-1.7-.7-2.3-1.4l-15.7-16.3-7.8-8.1c-.2-.2-.3-.2-.5-.2h-.2s-.2,0-.2,0c-.4,0-.7.2-.7.6v19.6c0,.7,0,1.2,0,1.9,0,.2.4.4.7.4h.5c.2,0,.3,0,.4-.2l10-10.2,2.5,2.6-10.3,10.8c-.5.4-1,.7-1.7.7h-2.3c-1.4,0-2.5-.9-3.1-2.1-.2-.3-.3-.7-.3-1V11.2c0-1.1,1.7-3,3.1-3h2.6c.4,0,1,.2,1.3.5l6.8,7,11.3,11.7,6.4,6.6c.1.1.3.2.5.2h1.5c.3,0,.5-.4.5-.7V12.3c0-.3-.4-.5-.7-.5h-.4c-.2,0-.3,0-.5.2l-10.4,10.7-2.6-2.7,10.9-11.3c.4-.4.9-.7,1.4-.7h2.4c1.5,0,3.2,1.7,3.2,2.8v3.2s0,11.1,0,11.1v9.7c0,1-1.6,2.8-2.7,2.8h-1.4s-1.3,0-1.3,0h-.6Z"/>
  </g>
</svg>