<?xml version="1.0" encoding="UTF-8"?>
<svg id="Capa_2" data-name="Capa 2" xmlns="http://www.w3.org/2000/svg" viewBox="0 0 419.52 297.6">
  <defs>
    <style>
      .cls-1 {
        fill: #fff;
      }
    </style>
  </defs>
  <g id="Capa_1-2" data-name="Capa 1">
    <g>
      <path class="cls-1" d="M352.45,297.6H0V0h419.52v297.6h-67.07ZM340.54,207.25l36.14-.05c2.52,0,4.68-1.42,6.5-2.91,2.15-1.75,3.7-4.08,4.59-6.7.14-.41.44-1.23.44-1.74l-.03-94.52c0-2.85-2.05-5.38-3.74-7.32-1.79-2.06-3.99-3.38-6.59-4l-1.6-.38-112.82-.02c-1.71.59-3.32.89-4.58,2.06-1.34,1.25-2.51,2.53-3.81,3.87l-12.58,12.94-9.38,9.63-18.34,18.92,9.99,10.31c.25.07.77-.21.89-.48l17-17.69,9.08-9.38,11.42-11.79,3.41-3.51c.21-.22.87-.53,1.17-.53l9.79-.04h2.19s54.97,0,54.97,0c1.07,0,1.94-.1,2.95-.04,2.1.14,4.1-.03,6.24-.03l27.71-.05c1.19,0,2.9.91,2.9,2.31v84.73c0,1.28-1.6,2.32-2.7,2.32l-37.81-.04-63.84.04h-5.23c-1.31-.01-2.13-.5-2.99-1.41l-3.53-3.75-9.24-9.58-9.06-9.34-7.25-7.53-9.69-10.06-7.63-7.95-30.32-31.62-18.77-19.58c-1.53-1.6-3.45-2.17-5.63-2.73l-116.32.02c-.61,0-1.41.32-1.95.43-3.09.65-5.51,2.53-7.45,5.04-1.37,1.78-2.91,4.14-2.91,6.66v93.89c.02,4.5,6.39,11.49,11.48,11.5l43.94.07h73.46c1.98,0,4.09-.99,5.39-2.35l40.49-42.34c.32-.26.54-.76.28-1.04l-9.5-9.86-12.93,13.25-8.99,9.25-10.75,11.11-6.78,7.05c-.65.68-1.36.87-2.41.87H48.39c-1.35.01-2.71-1.37-2.71-2.69v-84.15c0-1.41,1.62-2.51,2.88-2.51l34.45.07,18.89.03,3.46-.02c2.81-.02,5.54-.14,8.33,0,1.39.07,2.75.03,4.16.02l3.64-.02c1.52,0,2.97-.09,4.47,0,1.25.08,2.52.09,3.78.01,1.39-.09,2.64.01,4.05.01l22.62.04c.67,0,1.24.24,1.67.68l7.14,7.43,9.5,9.88,9.98,10.36,6.97,7.29,9.09,9.5,25.07,26.11,7.37,7.64,6.44,6.62,11.22,11.59c1.22,1.26,2.18,2.46,3.53,3.64s3.3,2.54,5.34,2.54h80.83ZM69.47,155.63l17.28.07c3.75.01,7.38-2.71,7.58-6.62.16-3.16.29-6.22-.07-9.33-.4-3.47-3.52-6.15-7.07-6.27-8.22-.29-16.8.02-24.66-.12-.35,0-.71.61-.7.82v30.99c0,.36.45.74.74.74l6.47-.02c.18-.15.41-.62.41-.85l.03-9.4ZM134.39,165.77l-8.09-10.2c3.83-.6,6.37-3.41,6.62-7.17.18-2.57.08-5.08.05-7.71-.41-4.1-3.51-7.24-7.81-7.25l-25.01-.09v32.55s7.48-.02,7.48-.02l.02-10.19h9.34s8.35,10.2,8.35,10.2l9.06-.11ZM165.22,165.92c3.31-.6,5.92-2.57,6.85-5.75.12-.4.4-1.29.4-1.71l-.11-17.54c-.03-4.01-3.52-7.32-7.58-7.46-6.26-.22-12.37-.2-18.61,0-4.27.14-7.76,3.56-7.77,7.73l-.03,16.71c0,3.94,3.16,7.36,7.16,8h19.69ZM292.09,159.28l3.72,6.62,8.8-.06-4.9-9.07-13.08-23.47-10.34-.02-10.33,18.82-5.25,9.72c-.72,1.32-1.29,2.45-2,4.05l8.64.05,3.67-6.64h21.06ZM348.71,165.82l-2.74-3.66-5.63-6.65c3.79-.48,6.71-3.44,6.98-7.26.17-2.52.06-4.81.04-7.43-.32-3.67-3.1-7.34-7.19-7.36l-28.6-.18v32.63s7.77-.04,7.77-.04v-10.17s10.98,0,10.98,0l9.24,10.21,9.16-.09ZM74.88,231.93c1.19-.35,1.8-1.32,1.85-2.36s-.46-1.94-1.42-2.45l-2.07-1.09c-.27-.14-.55-.74-.51-1.04.18-1.19,2.42-.52,3.3-.2l.63-1.51c-1.39-.71-2.9-.92-4.35-.4-1.04.37-1.54,1.31-1.56,2.28s.43,1.93,1.37,2.43l2.15,1.15c.3.16.53.87.41,1.15-.51,1.24-3.03.2-4.07-.1l.02,1.8c1.31.62,2.78.76,4.25.32ZM86.68,231.8c1.09-.43,1.5-1.43,1.5-2.41s-.57-1.83-1.5-2.32l-2.04-1.07c-.29-.15-.52-.87-.4-1.15.42-.99,2.27-.38,3.23-.04l.66-1.53c-1.21-.59-2.45-.79-3.76-.58-1.19.19-2.01,1.06-2.16,2.14-.13,1.01.27,2.15,1.27,2.69l2.18,1.18c.28.15.54.73.51,1.05-.16,1.36-3.01.46-4.07.05l.02,1.81c1.42.64,3.02.77,4.55.17ZM152.95,228.45l1.76.06v1.77c-.79.33-1.8.31-2.6-.22-1.18-.78-1.55-4.2.27-5.33,1.13-.7,2.31-.42,3.63.03l.65-1.6c-2.84-1.18-6.75-.61-7.48,2.76-.26,1.22-.21,2.52.17,3.68,1.05,3.21,4.84,2.88,7.37,2.03v-4.87s-3.77,0-3.77,0v1.69ZM170.17,231.8c1.08-.43,1.49-1.43,1.5-2.41s-.57-1.83-1.5-2.33l-2.04-1.08c-.29-.15-.51-.85-.4-1.14.44-1.05,2.44-.28,3.27-.05l.63-1.52c-1.27-.64-2.65-.84-4.03-.51-1.07.26-1.76,1.11-1.88,2.08s.21,2.09,1.17,2.62l2.28,1.25c.27.15.56.75.51,1.04-.2,1.38-3.03.44-4.07.06l.02,1.81c1.43.65,3.02.78,4.55.17ZM193.23,229.59c.5-1.45.47-2.98.03-4.35-.55-1.73-2.07-2.63-3.86-2.66-1.53-.03-3.16.35-3.97,1.77-1.07,1.89-1.06,4.47.16,6.28.92,1.37,2.66,1.68,4.21,1.54s2.88-1,3.43-2.58ZM268.4,231.94c1.14-.34,1.82-1.28,1.87-2.35s-.47-1.96-1.48-2.5l-2.12-1.14c-.26-.14-.49-.78-.38-1.03.47-1.08,2.24-.45,3.27-.11l.65-1.51c-1.35-.7-2.87-.92-4.32-.42-1.07.36-1.6,1.34-1.61,2.31s.43,1.91,1.34,2.4l2.14,1.15c.26.14.55.72.51,1.01-.19,1.37-2.94.54-4.1.04l-.02,1.82c1.35.64,2.82.77,4.27.34ZM347.67,231.81c1.09-.42,1.54-1.42,1.54-2.41,0-.89-.53-1.8-1.4-2.27l-2.17-1.16c-.29-.16-.51-.86-.38-1.14.46-1.04,2.41-.3,3.25-.05l.63-1.51c-1.3-.66-2.68-.86-4.07-.5-1.06.28-1.74,1.12-1.84,2.14-.09.88.25,2.04,1.17,2.55l2.37,1.31c.27.15.49.85.38,1.14-.48,1.21-3.03.23-4.05-.1l.02,1.8c1.42.64,3.01.79,4.54.19ZM80.37,231.98v-9.23s-2.03,0-2.03,0v9.27s2.03-.05,2.03-.05ZM93.42,231.98v-7.51s2.58-.05,2.58-.05l-.09-1.71h-6.98s.02,1.72.02,1.72l2.45.04.03,7.55,2-.04ZM102.52,228.07l-.02-1.67-3.13-.06.02-1.87,3.31-.04v-1.7s-5.34,0-5.34,0l-.02,9.29,5.34.02.02-1.62-3.32-.03v-2.27s3.14-.05,3.14-.05ZM112.71,232.01l1.9-.03v-9.25s-2.76,0-2.76,0l-2.34,6.99-2.18-7-2.74.03v9.23s1.88.02,1.88.02l-.07-6.8,2.11,6.78h1.9s2.2-6.6,2.2-6.6l.11,6.63ZM121.85,229.84l.63,2.16,2.19-.07-3.26-9.22h-2.48s-3.24,9.25-3.24,9.25l2.16.06.7-2.22,3.31.03ZM136.97,227.29c-.02-2.46-1.53-4.32-3.99-4.5-1.23-.09-2.48-.07-3.78-.05v9.27c1.23.02,2.41.03,3.57-.02,2.62-.12,4.21-2.12,4.19-4.7ZM143.97,228.07l-.02-1.67-3.13-.06.02-1.87,3.31-.04v-1.7s-5.34,0-5.34,0l-.02,9.29,5.34.02.02-1.62-3.32-.03v-2.27s3.14-.05,3.14-.05ZM164.03,228.07l-.02-1.68-3.13-.04.03-1.9,3.3-.02v-1.7s-5.35,0-5.35,0v9.29s5.35,0,5.35,0l-.03-1.62-3.31-.02.03-2.29,3.13-.02ZM176.9,231.98v-7.51s2.58-.05,2.58-.05l-.09-1.71h-6.98s.02,1.72.02,1.72l2.44.04.03,7.55,2-.04ZM182.85,231.98v-9.23s-2.07.02-2.07.02v9.21s2.07,0,2.07,0ZM203.76,232.02v-9.26s-1.86,0-1.86,0l-.02,6.67-3.9-6.66h-2.57s0,9.24,0,9.24h1.82s.02-6.69.02-6.69l3.9,6.7,2.61.02ZM215.82,225.96c.17-1.69-.88-3.04-2.63-3.17-1.25-.09-2.49-.08-3.86-.05v9.25s2.07.01,2.07.01l.05-3.21c2.23.05,4.13-.42,4.38-2.84ZM222.54,229.85l.64,2.19,2.16-.11-3.24-9.19h-2.48s-3.25,9.23-3.25,9.23c.81.05,1.55.06,2.16.03l.73-2.18,3.28.04ZM240.07,229.84l.63,2.17,2.19-.07-3.26-9.22-2.47.02-3.25,9.14-2.63-3.86c1.39-.68,1.86-1.86,1.63-3.15-.47-2.67-4.24-2.08-6.39-2.12v9.25s2,.01,2,.01l.05-3.45c.23-.11.92-.08,1.06.14l2.12,3.33h4.33s.71-2.21.71-2.21l3.31.03ZM251.06,231.98l.02-7.53,2.46-.02c.01-.61,0-1.24-.11-1.72h-6.94s-.01,1.7-.01,1.7l2.54.07v7.51s2.04-.02,2.04-.02ZM260.48,222.76l-.02,6.16c0,1-.82,1.59-1.76,1.59s-1.77-.58-1.78-1.59l-.02-6.16h-2.08s.01,5.96.01,5.96c0,1.53.84,2.86,2.34,3.27,1.07.29,2.26.28,3.3-.1,1.25-.46,2.05-1.63,2.06-2.96l.02-6.17h-2.06ZM280.28,229.85l.65,2.18,2.17-.06-3.25-9.23-2.52.02-3.22,9.21,2.16.03.69-2.19,3.32.02ZM290.56,227.71l-.77-.62c1-.5,1.28-1.54,1.07-2.61-.46-2.32-4.71-1.68-6.64-1.73v9.26c2.04-.11,5.8.66,6.7-1.52.38-.92.43-2.14-.36-2.78ZM298.08,228.06l-.02-1.67-3.05-.03-.02-1.89,3.37-.04-.04-1.7h-5.4s-.02,9.3-.02,9.3h5.45s-.02-1.61-.02-1.61l-3.33-.02.02-2.28,3.07-.05ZM305.44,232.02l2.2-.04-2.62-3.97c1.4-.68,1.85-1.86,1.62-3.17-.48-2.68-4.29-2.04-6.44-2.1v9.26s2.06,0,2.06,0l.03-3.3c0-.25.89-.28,1.03-.06l2.12,3.38ZM312.47,231.97l.02-7.52,2.47-.02c.01-.61,0-1.24-.11-1.71h-6.95s.01,1.72.01,1.72l2.45.04.03,7.55,2.08-.05ZM321.89,222.76l-.02,6.16c0,1-.82,1.59-1.76,1.59s-1.77-.58-1.78-1.59l-.02-6.16h-2.08s.01,5.96.01,5.96c0,1.53.84,2.86,2.34,3.27,1.07.29,2.26.28,3.3-.1,1.25-.46,2.05-1.63,2.06-2.96l.02-6.17h-2.06ZM339.72,229.83l.64,2.19,2.17-.07-3.24-9.2h-2.49s-3.23,9.13-3.23,9.13l-2.65-3.86c1.41-.7,1.86-1.87,1.63-3.18-.48-2.68-4.3-2.04-6.44-2.1v9.26s2.06,0,2.06,0l.04-3.45c.19-.09.91-.08,1.05.14l2.11,3.33,4.37-.02.67-2.18h3.32ZM62.55,229.05l-.07-3.06h-24.45s0,3.07,0,3.07h24.52ZM381.75,229.05l-.04-3.06h-24.49s.04,3.07.04,3.07h24.5Z"/>
      <path d="M340.54,207.25h-80.83c-2.04-.01-4-1.39-5.34-2.55s-2.31-2.38-3.53-3.64l-11.22-11.59-6.44-6.62-7.37-7.64-25.07-26.11-9.09-9.5-6.97-7.29-9.98-10.36-9.5-9.88-7.14-7.43c-.42-.44-1-.68-1.67-.68l-22.62-.04c-1.41,0-2.66-.1-4.05-.01-1.26.08-2.53.07-3.78-.01-1.5-.09-2.95,0-4.47,0l-3.64.02c-1.41,0-2.76.05-4.16-.02-2.79-.14-5.52-.01-8.33,0l-3.46.02-18.89-.03-34.45-.07c-1.25,0-2.87,1.1-2.87,2.51v84.15c0,1.32,1.36,2.71,2.7,2.71h107.39c1.05-.01,1.76-.21,2.41-.89l6.78-7.05,10.75-11.11,8.99-9.25,12.93-13.25,9.5,9.86c.27.28.05.78-.28,1.04l-40.49,42.34c-1.3,1.36-3.42,2.36-5.39,2.36h-73.46s-43.94-.08-43.94-.08c-5.08,0-11.46-7-11.46-11.5v-93.89c-.02-2.52,1.52-4.88,2.89-6.66,1.94-2.51,4.36-4.4,7.45-5.04.54-.11,1.34-.43,1.95-.43l116.32-.02c2.18.57,4.1,1.13,5.63,2.73l18.77,19.58,30.32,31.62,7.63,7.95,9.69,10.06,7.25,7.53,9.06,9.34,9.24,9.58,3.53,3.75c.86.91,1.68,1.39,2.99,1.4h5.23s63.84-.03,63.84-.03l37.81.04c1.11,0,2.7-1.04,2.7-2.32v-84.73c0-1.4-1.71-2.31-2.89-2.31l-27.71.05c-2.13,0-4.13.17-6.24.03-1.01-.07-1.88.04-2.95.04h-54.97s-2.19,0-2.19,0l-9.79.04c-.29,0-.95.32-1.17.53l-3.41,3.51-11.42,11.79-9.08,9.38-17,17.69c-.12.26-.63.55-.89.48l-9.99-10.31,18.34-18.92,9.38-9.63,12.58-12.94c1.3-1.34,2.47-2.62,3.81-3.87,1.26-1.18,2.88-1.48,4.58-2.06l112.82.02,1.6.38c2.6.62,4.8,1.94,6.59,4,1.69,1.94,3.73,4.47,3.74,7.32l.03,94.52c0,.51-.3,1.32-.44,1.74-.89,2.62-2.43,4.95-4.59,6.7-1.82,1.48-3.98,2.9-6.5,2.91l-36.14.05Z"/>
      <path d="M348.71,165.82l-9.16.09-9.24-10.21h-10.97s0,10.18,0,10.18l-7.77.04v-32.63s28.6.18,28.6.18c4.09.03,6.87,3.69,7.19,7.36.02,2.63.14,4.91-.04,7.43-.26,3.83-3.19,6.78-6.98,7.26l5.63,6.65,2.74,3.66ZM339.72,145.73l-.07-3.18c-.02-.99-.98-1.63-1.9-1.79h-18.43s.02,7.71.02,7.71h18.29c1.4-.39,2.12-1.26,2.09-2.74Z"/>
      <path d="M134.39,165.77l-9.06.11-8.35-10.2h-9.34s-.02,10.19-.02,10.19l-7.49.02v-32.55s25.02.09,25.02.09c4.3.02,7.4,3.16,7.81,7.25.04,2.63.13,5.13-.05,7.71-.26,3.76-2.79,6.57-6.62,7.17l8.09,10.2ZM125.52,146.3l-.07-3.84c-.02-.88-.8-1.66-1.68-1.66l-16.13-.02v7.74s15.95,0,15.95,0c1.14-.11,1.96-.99,1.94-2.22Z"/>
      <path d="M165.22,165.92h-19.69c-4-.64-7.17-4.06-7.16-8l.03-16.71c0-4.17,3.49-7.59,7.77-7.73,6.24-.21,12.35-.22,18.61,0,4.06.14,7.56,3.45,7.58,7.46l.11,17.54c0,.41-.28,1.31-.4,1.71-.94,3.17-3.54,5.15-6.85,5.75ZM163.01,158.69c1.09-.31,1.94-1.08,1.94-2.24l.03-13.74c-.35-1.48-1.28-1.96-2.63-1.96h-14.19c-1.25,0-2.32.87-2.31,2.23l.02,13.52c0,1.1.96,2.21,2.12,2.21l15.04-.03Z"/>
      <path d="M292.09,159.28h-21.06s-3.67,6.63-3.67,6.63l-8.64-.05c.71-1.6,1.28-2.72,2-4.05l5.25-9.72,10.33-18.82,10.34.02,13.08,23.47,4.9,9.07-8.8.06-3.72-6.62ZM287.94,151.82l-6.52-11.37-6.31,11.38h12.83Z"/>
      <path d="M69.47,155.63l-.03,9.4c0,.23-.23.7-.41.85l-6.47.02c-.3,0-.74-.38-.74-.74v-30.99c0-.21.36-.83.7-.82,7.86.14,16.44-.17,24.66.12,3.55.12,6.67,2.8,7.07,6.27.36,3.11.24,6.18.07,9.33-.2,3.92-3.83,6.64-7.58,6.62l-17.28-.07ZM86.99,142.91c.02-.84-.45-2.11-1.63-2.12l-15.9-.04v7.81s15.55-.04,15.55-.04c2.81,0,1.92-3.27,1.98-5.62Z"/>
      <path d="M339.72,229.83h-3.32s-.67,2.18-.67,2.18l-4.37.02-2.11-3.33c-.14-.22-.86-.22-1.05-.14l-.04,3.45h-2.06s0-9.26,0-9.26c2.14.06,5.96-.58,6.44,2.1.23,1.31-.22,2.48-1.63,3.18l2.65,3.86,3.23-9.13h2.49s3.24,9.2,3.24,9.2l-2.17.07-.64-2.19ZM330.2,226.43c.46-.35.44-1.41,0-1.67-.57-.34-1.29-.34-2-.28v2.33c.69.06,1.42.06,2.01-.38ZM339.2,228.02l-1.16-3.59-1.12,3.68c.91,0,1.51,0,2.28-.09Z"/>
      <path d="M240.07,229.84l-3.31-.03-.71,2.2h-4.33s-2.12-3.32-2.12-3.32c-.14-.22-.83-.25-1.06-.14l-.05,3.45h-2s0-9.27,0-9.27c2.15.04,5.93-.55,6.39,2.12.22,1.29-.25,2.47-1.63,3.15l2.63,3.86,3.25-9.14,2.47-.02,3.26,9.22-2.19.07-.63-2.17ZM229.95,226.76c.34-.02.86-.54.94-.87.07-.29-.1-1.05-.41-1.19-.48-.22-1.27-.29-1.93-.22l-.03,2.36,1.43-.09ZM239.54,228.05l-1.12-3.61-1.12,3.66,2.25-.05Z"/>
      <polygon points="381.75 229.05 357.26 229.06 357.22 225.99 381.71 225.99 381.75 229.05"/>
      <polygon points="62.55 229.05 38.02 229.06 38.02 225.99 62.48 225.98 62.55 229.05"/>
      <polygon points="112.71 232.01 112.61 225.38 110.41 231.97 108.51 231.99 106.4 225.2 106.47 232 104.59 231.98 104.59 222.75 107.33 222.72 109.51 229.72 111.86 222.74 114.61 222.74 114.61 231.98 112.71 232.01"/>
      <polygon points="203.76 232.02 201.15 232 197.25 225.3 197.23 232 195.41 231.99 195.42 222.74 197.99 222.76 201.89 229.42 201.91 222.75 203.76 222.76 203.76 232.02"/>
      <path d="M290.56,227.71c.79.65.74,1.86.36,2.78-.9,2.17-4.66,1.41-6.7,1.52v-9.26c1.93.05,6.18-.59,6.64,1.73.21,1.07-.06,2.1-1.07,2.61l.77.62ZM288.05,226.34c.3,0,.76-.51.8-.8.04-.26-.19-.92-.47-.97-.6-.11-1.35-.13-2.07-.12v1.92s1.74-.03,1.74-.03ZM288.55,230.11c.71-.31.66-1.51.07-1.78-.69-.32-1.62-.38-2.32-.26v2.32c.8.02,1.55.03,2.25-.28Z"/>
      <path d="M193.23,229.59c-.55,1.58-1.86,2.44-3.43,2.58s-3.29-.16-4.21-1.54c-1.22-1.82-1.23-4.39-.16-6.28.81-1.42,2.44-1.8,3.97-1.77,1.79.03,3.31.94,3.86,2.66.44,1.37.47,2.9-.03,4.35ZM191.09,229.29c.54-1.33.52-2.81-.1-4.03-.39-.77-1.25-.98-2.04-.95-.63.03-1.41.36-1.73,1.09-.53,1.22-.52,2.72-.01,3.94.34.81,1.17,1.14,1.91,1.13s1.62-.31,1.96-1.18Z"/>
      <path d="M136.97,227.29c.02,2.58-1.57,4.58-4.19,4.7-1.16.05-2.35.03-3.57.02v-9.27c1.3-.02,2.55-.04,3.78.05,2.46.18,3.97,2.04,3.99,4.5ZM134.15,229.54c.96-1.22.92-3.28-.03-4.41-.72-.86-2.01-.78-2.91-.55l.02,5.78c1.04-.01,2.19.09,2.91-.82Z"/>
      <path d="M152.95,228.45v-1.69s3.77,0,3.77,0v4.87c-2.52.85-6.3,1.18-7.36-2.03-.38-1.16-.44-2.46-.17-3.68.72-3.37,4.63-3.94,7.48-2.76l-.65,1.6c-1.32-.45-2.5-.73-3.63-.03-1.82,1.13-1.46,4.56-.27,5.33.81.53,1.81.55,2.61.22v-1.77s-1.77-.06-1.77-.06Z"/>
      <path d="M305.44,232.02l-2.12-3.38c-.14-.22-1.02-.19-1.03.06l-.03,3.3h-2.06s0-9.25,0-9.25c2.15.06,5.96-.58,6.44,2.1.23,1.3-.22,2.49-1.62,3.17l2.62,3.97-2.2.04ZM304.29,226.43c.46-.35.44-1.41,0-1.67-.57-.34-1.29-.34-2-.28v2.33c.69.06,1.42.06,2.01-.38Z"/>
      <path d="M260.48,222.76h2.06s-.02,6.17-.02,6.17c0,1.33-.8,2.5-2.06,2.96-1.04.38-2.23.38-3.3.1-1.5-.4-2.34-1.74-2.34-3.27v-5.97s2.07,0,2.07,0l.02,6.16c0,1.01.83,1.59,1.78,1.59s1.76-.59,1.76-1.59l.02-6.16Z"/>
      <path d="M321.89,222.76h2.06s-.02,6.17-.02,6.17c0,1.33-.8,2.5-2.06,2.96-1.04.38-2.23.38-3.3.1-1.5-.4-2.34-1.74-2.34-3.27v-5.97s2.07,0,2.07,0l.02,6.16c0,1.01.83,1.59,1.78,1.59s1.76-.59,1.76-1.59l.02-6.16Z"/>
      <path d="M121.85,229.84l-3.31-.03-.7,2.22-2.16-.06,3.24-9.24h2.48s3.26,9.21,3.26,9.21l-2.19.07-.63-2.16ZM121.32,228.05l-1.12-3.61-1.12,3.66,2.25-.05Z"/>
      <path d="M280.28,229.85l-3.32-.02-.69,2.19-2.16-.03,3.22-9.21,2.52-.02,3.25,9.23-2.17.06-.65-2.18ZM279.75,228.04l-1.16-3.61-1.1,3.64,2.26-.03Z"/>
      <path d="M222.54,229.85l-3.28-.04-.73,2.18c-.61.03-1.35.02-2.16-.03l3.25-9.24h2.48s3.24,9.21,3.24,9.21l-2.16.11-.64-2.19ZM222,228.05l-1.14-3.51-1.13,3.52,2.27-.02Z"/>
      <path d="M215.82,225.96c-.24,2.42-2.15,2.89-4.38,2.84l-.05,3.21h-2.07s0-9.27,0-9.27c1.37-.03,2.61-.04,3.86.05,1.75.12,2.8,1.48,2.63,3.17ZM213.34,226.7c.61-.52.57-1.54.02-1.97-.45-.36-1.47-.39-1.94-.12l.02,2.38c.61.12,1.46.08,1.89-.29Z"/>
      <polygon points="298.08 228.06 295.02 228.1 295 230.38 298.33 230.4 298.35 232.03 292.9 232.02 292.92 222.72 298.31 222.72 298.36 224.42 294.99 224.47 295.01 226.35 298.06 226.38 298.08 228.06"/>
      <polygon points="143.97 228.07 140.83 228.11 140.83 230.38 144.15 230.41 144.14 232.03 138.79 232.02 138.81 222.72 144.14 222.73 144.15 224.43 140.84 224.46 140.82 226.33 143.95 226.39 143.97 228.07"/>
      <polygon points="102.52 228.07 99.37 228.11 99.38 230.38 102.7 230.41 102.68 232.03 97.34 232.02 97.36 222.72 102.69 222.73 102.7 224.43 99.38 224.46 99.37 226.33 102.5 226.39 102.52 228.07"/>
      <polygon points="164.03 228.07 160.9 228.1 160.88 230.38 164.18 230.41 164.21 232.02 158.86 232.02 158.86 222.73 164.2 222.73 164.21 224.43 160.91 224.45 160.88 226.35 164.01 226.39 164.03 228.07"/>
      <path d="M268.4,231.94c-1.45.43-2.91.3-4.27-.34l.02-1.82c1.16.5,3.91,1.33,4.1-.04.04-.29-.25-.87-.51-1.01l-2.14-1.15c-.91-.49-1.35-1.45-1.34-2.4s.54-1.95,1.61-2.31c1.45-.49,2.97-.28,4.32.42l-.65,1.51c-1.03-.34-2.8-.98-3.27.11-.11.26.12.9.38,1.03l2.12,1.14c1.01.54,1.53,1.44,1.48,2.5s-.73,2.01-1.87,2.35Z"/>
      <path d="M347.67,231.81c-1.53.6-3.12.45-4.54-.19l-.02-1.8c1.02.33,3.57,1.31,4.05.1.11-.29-.11-.99-.38-1.14l-2.37-1.31c-.92-.51-1.26-1.66-1.17-2.55.1-1.02.78-1.86,1.84-2.14,1.39-.36,2.77-.16,4.07.5l-.63,1.51c-.84-.25-2.79-.99-3.25.05-.12.28.09.99.38,1.14l2.17,1.16c.87.46,1.41,1.37,1.4,2.27,0,.99-.46,1.98-1.54,2.41Z"/>
      <path d="M170.17,231.8c-1.53.61-3.13.48-4.55-.17l-.02-1.81c1.04.38,3.86,1.32,4.07-.06.04-.3-.24-.89-.51-1.04l-2.28-1.25c-.96-.52-1.29-1.66-1.17-2.62s.81-1.82,1.88-2.08c1.38-.33,2.76-.12,4.03.51l-.63,1.52c-.83-.23-2.83-.99-3.27.05-.12.28.11.98.4,1.14l2.04,1.08c.93.49,1.51,1.35,1.5,2.33s-.42,1.98-1.5,2.41Z"/>
      <path d="M74.88,231.93c-1.47.44-2.94.3-4.25-.32l-.02-1.8c1.04.3,3.55,1.34,4.07.1.12-.29-.1-.99-.41-1.15l-2.15-1.15c-.94-.51-1.39-1.47-1.37-2.43s.52-1.91,1.56-2.28c1.44-.51,2.95-.31,4.35.4l-.63,1.51c-.87-.32-3.11-1-3.3.2-.05.3.24.9.51,1.04l2.07,1.09c.96.51,1.47,1.46,1.42,2.45s-.65,2-1.85,2.36Z"/>
      <path d="M86.68,231.8c-1.52.61-3.13.47-4.55-.17l-.02-1.81c1.05.41,3.9,1.3,4.07-.05.04-.32-.23-.9-.51-1.05l-2.18-1.18c-1-.54-1.4-1.68-1.27-2.69.14-1.08.97-1.95,2.16-2.14,1.32-.22,2.55,0,3.76.58l-.66,1.53c-.97-.34-2.82-.94-3.23.04-.12.28.1,1,.4,1.15l2.04,1.07c.94.49,1.51,1.35,1.5,2.32s-.42,1.97-1.5,2.41Z"/>
      <polygon points="176.9 231.98 174.89 232.02 174.87 224.48 172.42 224.44 172.41 222.73 179.38 222.72 179.47 224.43 176.9 224.47 176.9 231.98"/>
      <polygon points="93.42 231.98 91.41 232.02 91.39 224.47 88.94 224.43 88.93 222.73 95.9 222.72 95.99 224.43 93.42 224.47 93.42 231.98"/>
      <path d="M312.47,231.97l-2.08.05-.03-7.55-2.45-.04v-1.71s6.94-.01,6.94-.01c.1.48.12,1.11.11,1.71l-2.47.02-.02,7.52Z"/>
      <path d="M251.06,231.98l-2.03.02v-7.51s-2.55-.07-2.55-.07v-1.69s6.95-.01,6.95-.01c.1.48.12,1.11.11,1.72l-2.46.02-.02,7.53Z"/>
      <polygon points="182.85 231.98 180.78 231.98 180.78 222.76 182.84 222.75 182.85 231.98"/>
      <polygon points="80.37 231.98 78.36 232.02 78.34 222.76 80.36 222.75 80.37 231.98"/>
      <path class="cls-1" d="M339.72,145.73c.03,1.48-.69,2.35-2.09,2.75h-18.29s-.02-7.72-.02-7.72h18.43c.92.15,1.88.8,1.9,1.79l.07,3.18Z"/>
      <path class="cls-1" d="M125.52,146.3c.02,1.23-.8,2.11-1.94,2.22h-15.96s.01-7.74.01-7.74l16.13.02c.88,0,1.67.78,1.68,1.66l.07,3.84Z"/>
      <path class="cls-1" d="M163.01,158.69l-15.04.03c-1.16,0-2.11-1.11-2.12-2.21l-.02-13.52c0-1.37,1.06-2.23,2.31-2.23h14.19c1.35,0,2.28.47,2.63,1.95l-.03,13.74c0,1.16-.85,1.93-1.94,2.24Z"/>
      <polygon class="cls-1" points="287.94 151.82 275.12 151.83 281.42 140.45 287.94 151.82"/>
      <path class="cls-1" d="M86.99,142.91c-.06,2.35.84,5.62-1.98,5.62l-15.55.04v-7.81s15.89.04,15.89.04c1.18,0,1.65,1.27,1.63,2.12Z"/>
      <path class="cls-1" d="M330.2,226.43c-.59.44-1.32.44-2.01.38v-2.33c.71-.06,1.43-.06,2,.28.45.26.47,1.33,0,1.67Z"/>
      <path class="cls-1" d="M339.2,228.02c-.76.08-1.37.1-2.28.09l1.12-3.68,1.16,3.59Z"/>
      <path class="cls-1" d="M229.95,226.76l-1.43.09.03-2.36c.66-.07,1.45,0,1.93.22.3.14.47.9.41,1.19-.08.33-.59.84-.94.87Z"/>
      <polygon class="cls-1" points="239.54 228.05 237.29 228.09 238.41 224.43 239.54 228.05"/>
      <path class="cls-1" d="M288.55,230.11c-.7.31-1.45.3-2.25.28v-2.32c.7-.12,1.63-.06,2.32.26.59.28.63,1.47-.07,1.78Z"/>
      <path class="cls-1" d="M288.05,226.34l-1.75.03v-1.92c.73,0,1.48.01,2.08.12.28.05.51.71.47.97-.05.29-.5.79-.8.8Z"/>
      <path class="cls-1" d="M191.09,229.29c-.35.87-1.21,1.17-1.96,1.18s-1.58-.32-1.91-1.13c-.51-1.22-.51-2.72.01-3.94.31-.73,1.1-1.06,1.73-1.09.78-.04,1.65.18,2.04.95.62,1.22.64,2.7.1,4.03Z"/>
      <path class="cls-1" d="M134.15,229.54c-.72.91-1.88.81-2.91.82l-.02-5.78c.9-.23,2.18-.31,2.91.55.95,1.12.99,3.19.03,4.41Z"/>
      <path class="cls-1" d="M304.29,226.43c-.59.44-1.32.44-2.01.38v-2.33c.71-.06,1.43-.06,2,.28.45.26.47,1.33,0,1.67Z"/>
      <polygon class="cls-1" points="121.32 228.05 119.07 228.09 120.19 224.43 121.32 228.05"/>
      <polygon class="cls-1" points="279.75 228.04 277.49 228.07 278.59 224.44 279.75 228.04"/>
      <polygon class="cls-1" points="222 228.05 219.73 228.06 220.86 224.54 222 228.05"/>
      <path class="cls-1" d="M213.34,226.7c-.43.37-1.29.41-1.89.29l-.02-2.38c.47-.27,1.49-.23,1.94.12.55.43.59,1.45-.02,1.97Z"/>
    </g>
  </g>
</svg>