<?xml version="1.0" encoding="UTF-8"?>
<svg id="Capa_2" xmlns="http://www.w3.org/2000/svg" version="1.1" viewBox="0 0 357.8 118.6">
  <!-- Generator: Adobe Illustrator 30.2.1, SVG Export Plug-In . SVG Version: 2.1.1 Build 1)  -->
  <defs>
    <style>
      .st0 {
        fill: #fff;
      }
    </style>
  </defs>
  <g id="Capa_1-2">
    <g>
      <path class="st0" d="M-.5,118.6V0h359.4v118.6H-.5ZM319.5,118l27.6-.2c4.1,0,10.4-6.8,10.5-10.7v-38.8c.1,0,.1-44.1.1-44.1v-12.7c-.2-4.3-6.8-11.1-12.8-11.1h-112c-2.3,0-4,1.2-5.7,2.6l-43.8,44.9,10.3,10.6,41.5-42.8c.6-.5,1.1-.8,1.9-.8h45.8s58.3,0,58.3,0c1,0,2.6.9,2.6,2v84.4c0,1.1-.8,2.8-2.1,2.8h-108.4c-.7,0-1.4-.3-1.9-.7l-25.6-26.4-45-46.6-27-27.9c-1.1-1.2-3.4-2-5.2-2H12.2C6.6.3,0,7.7,0,12v93.7c0,1.6.3,2.9,1,4.1,2.3,4.4,6.9,8.2,12.3,8.2h115.1c2.7,0,4.7-.9,6.7-2.6l41.2-42.9-10-10.2-39.8,40.8c-.5.4-1,.7-1.7.7H16.7c-1,0-2.6-.7-2.7-1.6-.3-2.6-.3-4.8-.3-7.5V16.8c.1-1.4,1.5-2.2,2.9-2.2h57.3s50.6,0,50.6,0c.8,0,1.5.3,2.1.9l31,32.2,62.8,64.9c2.6,2.7,4.8,5.5,9.3,5.5,0,0,89.7,0,89.7-.1ZM61.2,63.5c1.4-1.9,1.5-4.1,1.5-6.4v-5.8c0-2.7-1.5-4.8-3.7-6.2-1.6-.8-3.2-1.2-5-1.2h-24v32.6h7.6s0-10.1,0-10.1l17.6-.2c2.5,0,4.5-.7,6-2.8h0ZM102.8,76.4l-8.1-10.2c7.9-1.6,6.7-8.5,6.7-14.7-.2-4-3.3-7.5-7.6-7.5h-25.5c0-.1,0,32.4,0,32.4h7.5c0,0,0-10,0-10h9.3s8.4,10.2,8.4,10.2l9.1-.2h0ZM133.6,76.6c3.8-.6,6.6-3,7.3-6.6v-18.4c0-3.7-3.2-7.1-6.9-7.4-6.8-.5-13.3-.4-20,0-3.7.2-6.5,3-7.2,6.5v18.4c0,4.8,4.4,7.6,8.9,7.6h18c0,0,0,0,0,0ZM261.2,70l3.7,6.6h8.9c0-.1-18.1-32.7-18.1-32.7h-10.4s-11.9,21.6-11.9,21.6l-5.8,11h8.8c0,.1,3.7-6.4,3.7-6.4h21.1s0,0,0,0ZM318.1,76.3l-8.3-10.1c7.5-1.6,7.2-7.2,7-13.4,0-2.4-.7-4.8-2.4-6.5-1.5-1.8-3.5-2.2-5.9-2.2l-27.8-.2v32.6h7.8s0-10.1,0-10.1h10.9c0,0,9.3,10.1,9.3,10.1h2.7c2.2,0,4.3.2,6.6-.2h0Z"/>
      <path d="M319.5,118h-89.7c-4.5,0-6.7-2.7-9.3-5.4l-62.8-64.9-31-32.2c-.6-.6-1.3-.9-2.1-.9h-50.6s-57.3,0-57.3,0c-1.4,0-2.8.9-2.8,2.2v6.8c0,0,0,71.2,0,71.2,0,2.7,0,4.9.3,7.5,0,.9,1.7,1.5,2.7,1.5h108.1c.7,0,1.2-.3,1.7-.7l39.8-40.8,10,10.3-41.2,42.9c-1.9,1.7-4,2.6-6.7,2.6H13.3c-5.4,0-10-3.7-12.3-8.2-.6-1.2-1-2.6-1-4.1V12.1C0,7.7,6.6.3,12.2.3h116.6c1.7,0,4,.7,5.2,1.9l27,27.9,45,46.6,25.6,26.4c.4.5,1.2.7,1.9.7h108.4c1.3,0,2.1-1.7,2.1-2.8V16.6c0-1.1-1.6-2-2.6-2h-104c-.8,0-1.3.3-1.9.9l-41.5,42.8-10.3-10.6L227.2,2.8c1.7-1.4,3.4-2.6,5.7-2.6h112c6,0,12.6,6.8,12.6,11.1v12.7c.1,0,.1,44.1.1,44.1v38.8c-.1,3.9-6.5,10.7-10.6,10.7l-27.6.2h0Z"/>
      <path d="M318.1,76.3c-2.4.4-4.4.3-6.6.3h-2.7s-9.3-10.2-9.3-10.2h-10.9c0,0,0,10.2,0,10.2h-7.8v-32.7l27.8.2c2.3,0,4.3.5,5.9,2.2,1.6,1.7,2.5,4.1,2.4,6.5.2,6.2.4,11.8-7,13.4l8.3,10.1h0ZM309,57v-3.5c0-1-.9-2.1-1.9-2.1h-18.6v7.7s18.6,0,18.6,0c.9,0,1.9-1.1,1.9-2.1h0Z"/>
      <path d="M102.8,76.4l-9.1.2-8.4-10.2h-9.3s0,10.1,0,10.1h-7.5v-32.6h25.5c4.3.2,7.4,3.6,7.6,7.6,0,6.2,1.2,13-6.7,14.7l8.1,10.2h0ZM93.9,57.1v-3.9c-.1-1-.9-1.8-1.8-1.8h-16.2v7.8h16.4c.8-.3,1.7-1.1,1.7-2.1h0Z"/>
      <path d="M133.6,76.6h-18c-4.5,0-8.9-2.7-8.9-7.5v-18.4c.7-3.4,3.5-6.3,7.2-6.5,6.7-.3,13.2-.4,20,0,3.7.2,6.9,3.7,6.9,7.4v18.4c-.7,3.6-3.5,6.1-7.3,6.6h0ZM131.3,69.4c1.1,0,2.2-1,2.2-2.1v-14c0-1-1.1-1.9-2.1-1.9h-14.7c-1.3,0-2.5,1-2.5,2.4v13.5c0,1,1,2.2,2,2.2h15.1,0Z"/>
      <path d="M261.2,70h-21.1s-3.7,6.5-3.7,6.5h-8.8c0-.1,5.8-11.1,5.8-11.1l11.9-21.6h10.4s18.1,32.5,18.1,32.5h-8.9c0,.1-3.7-6.4-3.7-6.4h0ZM257,62.5l-6.6-11.4-6.3,11.5h12.9Z"/>
      <path d="M61.2,63.5c-1.5,2.1-3.6,2.8-6,2.8l-17.6.2v10.1h-7.6v-32.4h24c1.8-.1,3.5.3,5,1.1,2.2,1.3,3.7,3.5,3.7,6.2v5.8c0,2.3,0,4.4-1.4,6.4h0ZM55.2,57.3v-3.8c0-1.3-1-2.1-2.2-2.1h-15.5v7.9h16.1c.9-.2,1.7-.9,1.7-2h0Z"/>
      <path class="st0" d="M309,57c0,.9-.9,2.1-1.9,2.1h-18.6s0-7.7,0-7.7h18.6c1.1,0,2,1.1,1.9,2.1v3.5h0Z"/>
      <path class="st0" d="M93.9,57.1c0,1-.8,1.8-1.7,2.1h-16.4v-7.8h16.2c1,0,1.7.8,1.8,1.8v3.9c0,0,0,0,0,0Z"/>
      <path class="st0" d="M131.3,69.4h-15.1c-1,0-2-1.2-2-2.2v-13.5c0-1.3,1.1-2.4,2.5-2.4h14.7c1.1,0,2.1,1,2.1,2v14c0,1.1-1.1,2.1-2.2,2.1h0Z"/>
      <polygon class="st0" points="257 62.5 244.1 62.5 250.4 51 257 62.5"/>
      <path class="st0" d="M55.2,57.3c0,1.1-.7,1.8-1.7,2h-16.1c0,0,0-7.8,0-7.8h15.5c1.3,0,2.2.8,2.2,2.1v3.8h0Z"/>
    </g>
  </g>
</svg>